<svg preserveAspectRatio="xMidYMid meet" class="h-100" data-bbox="20.9 6.4 348.6 106.4" viewBox="20.9 6.4 348.6 106.4" xmlns="http://www.w3.org/2000/svg" data-type="color" role="presentation" aria-hidden="true" aria-label="">
                <g>
                    <path d="M92.2 54.5c.6-.9 1.4-1.7 2.5-2.4 1.9-1.3 4.3-2.4 7.1-3.2 2.9-.8 6.1-1.3 9.7-1.3 6.3 0 11.2 1.4 14.5 4.1l.8.8c-3.4-26-25.7-46.1-52.7-46.1-29.4 0-53.2 23.8-53.2 53.2s23.8 53.2 53.2 53.2c19 0 35.7-10 45.1-25-.2-.2-.4-.4-.6-.7-.3-.8-.5-1.8-.5-3.1V63.4c0-2.1-.6-3.7-1.9-4.8-1.2-1-2.8-1.5-4.8-1.5-1.2 0-2.5.2-3.7.5s-2.3.8-3.3 1.5l-.4.3v29.9c-.5.1-1.1.2-1.8.3-1.2.2-2.4.2-3.7.2-1.2 0-2.3-.1-3.3-.2-.8-.2-1.6-.4-2.1-.8s-1-1-1.3-1.7c-.3-.8-.5-1.8-.5-3.1V57.8c0-1.3.3-2.4.9-3.3M79.9 89.2l-2 .3c-1.2.2-2.4.3-3.6.3s-2.3-.1-3.3-.2c-.8-.1-1.5-.4-2.1-.8s-1-1-1.3-1.7c-.3-.8-.5-1.8-.5-3.1V49.4l2-.3c1.2-.2 2.4-.3 3.6-.3s2.3.1 3.3.2c.8.1 1.6.4 2.1.8s1 1 1.3 1.7c.3.8.5 1.8.5 3.1v34.6zM78.7 41c-1.3 1.3-3 2-5.1 2s-3.8-.6-5.1-2c-1.3-1.3-1.9-2.9-1.9-4.8s.6-3.5 1.9-4.9c1.3-1.3 3-2 5.1-2 2.2 0 3.8.6 5.1 2 1.3 1.3 1.9 2.9 1.9 4.8 0 2-.6 3.6-1.9 4.9" fill="#BCD537" data-color="1"></path>
                    <path d="M345.8 108.4c-6.7 0-12.9-2.7-16.4-7.2-1.7-2.1-1.3-5.2.8-6.9 2.1-1.7 5.2-1.3 6.9.8 1.6 2.1 5 3.4 8.6 3.4 4.6 0 7.9-2.1 9-4 1.4-2.4 4.4-3.2 6.7-1.8 2.4 1.3 3.2 4.4 1.8 6.7-2.9 5.5-9.8 9-17.4 9" fill="#FFFFFF" data-color="2"></path>
                    <path d="m363.4 52.6 2-2.6c1.6-2.2 1.2-5.3-1-6.9-2.2-1.7-5.3-1.2-6.9 1l-2.1 2.8c-2.9-1.2-6-2-9.4-2-13 0-23.5 10.5-23.5 23.5S333 91.9 346 91.9s23.5-10.5 23.5-23.5c0-6.1-2.3-11.6-6.1-15.8zM346 82c-7.5 0-13.6-6.1-13.6-13.6s6.1-13.6 13.6-13.6 13.6 6.1 13.6 13.6S353.5 82 346 82z" fill="#FFFFFF" data-color="2"></path>
                    <path d="M180.7 81.6c0 1.3-.3 2.4-.9 3.2s-1.4 1.6-2.6 2.3c-1.4.9-3.4 1.8-5.7 2.6-2.4.8-5.1 1.2-8.3 1.2-7 0-12.5-1.8-16.6-5.3-4.1-3.6-6.1-9-6.1-16.4 0-3.8.6-7.1 1.6-9.9 1.1-2.8 2.6-5 4.5-6.8s4.1-3.1 6.7-4c2.6-.9 5.3-1.3 8.3-1.3 1.6 0 3 .2 4.4.5s2.6.7 3.7 1.2V33c.5-.2 1.1-.3 2-.5.9-.1 1.9-.2 2.9-.2 2.1 0 3.6.4 4.6 1.1s1.4 2.1 1.4 4l.1 44.2zm-10.9-24c-.9-.5-1.9-1-3-1.3-1.2-.3-2.4-.5-3.7-.5-3.2 0-5.9 1-8.1 3.1-2.1 2.1-3.2 5.5-3.2 10.3 0 4.5 1 7.7 3.1 9.8s4.9 3.1 8.4 3.1c1.5 0 2.8-.2 3.9-.5s2-.8 2.7-1.2l-.1-22.8z" fill="#FFFFFF" data-color="2"></path>
                    <path d="M188.6 36.1c0-1.7.6-3.1 1.8-4.3s2.7-1.8 4.6-1.8 3.4.6 4.5 1.8c1.1 1.2 1.7 2.6 1.7 4.3s-.6 3.2-1.7 4.4c-1.2 1.2-2.7 1.8-4.5 1.8-1.9 0-3.4-.6-4.6-1.8s-1.8-2.7-1.8-4.4zm.9 12.6c.5-.1 1.1-.3 2-.4.9-.2 1.9-.3 2.9-.3 2.1 0 3.6.4 4.6 1.1s1.4 2.1 1.4 4v36.4c-.5.1-1.1.3-2 .4-.9.2-1.9.3-2.9.3-2.1 0-3.6-.4-4.6-1.1s-1.4-2.1-1.4-4V48.7z" fill="#FFFFFF" data-color="2"></path>
                    <path d="M234.4 57.6c-1.4-1.2-3.4-1.7-5.8-1.7-1.7 0-3.2.2-4.6.6s-2.6.9-3.7 1.6v31.5c-.5.1-1.2.3-2.1.4s-1.9.3-3 .3c-2 0-3.5-.4-4.5-1.1-1-.8-1.5-2.1-1.5-4V57.1c0-1.4.3-2.5.9-3.4s1.5-1.7 2.7-2.5c1.7-1.2 3.9-2.1 6.7-2.9s5.9-1.2 9.2-1.2c6 0 10.6 1.3 13.9 4s4.9 6.5 4.9 11.6v26.8c-.5.1-1.1.3-2 .4-.9.2-1.9.3-2.9.3-2.1 0-3.6-.4-4.6-1.1s-1.4-2.1-1.4-4V63c-.1-2.5-.8-4.3-2.2-5.4z" fill="#FFFFFF" data-color="2"></path>
                    <path d="M255.1 36.1c0-1.7.6-3.1 1.8-4.3s2.7-1.8 4.6-1.8 3.4.6 4.5 1.8c1.1 1.2 1.7 2.6 1.7 4.3s-.6 3.2-1.7 4.4c-1.2 1.2-2.7 1.8-4.5 1.8-1.9 0-3.4-.6-4.6-1.8s-1.8-2.7-1.8-4.4zm.8 12.6c.5-.1 1.1-.3 2-.4.9-.2 1.9-.3 2.9-.3 2.1 0 3.6.4 4.6 1.1 1 .8 1.4 2.1 1.4 4v36.4c-.5.1-1.1.3-2 .4-.9.2-1.9.3-2.9.3-2.1 0-3.6-.4-4.6-1.1-1-.8-1.4-2.1-1.4-4V48.7z" fill="#FFFFFF" data-color="2"></path>
                    <path d="M301.5 57.6c-1.4-1.2-3.4-1.7-5.8-1.7-1.7 0-3.2.2-4.6.6-1.4.4-2.6.9-3.7 1.6v31.5c-.5.1-1.2.3-2.1.4s-1.9.3-3 .3c-2 0-3.5-.4-4.5-1.1-1-.8-1.5-2.1-1.5-4V57.1c0-1.4.3-2.5.9-3.4s1.5-1.7 2.7-2.5c1.7-1.2 3.9-2.1 6.7-2.9s5.9-1.2 9.2-1.2c6 0 10.6 1.3 13.9 4s4.9 6.5 4.9 11.6v26.8c-.5.1-1.1.3-2 .4-.9.2-1.9.3-2.9.3-2.1 0-3.6-.4-4.6-1.1-1-.8-1.4-2.1-1.4-4V63c-.1-2.5-.8-4.3-2.2-5.4z" fill="#FFFFFF" data-color="2"></path>
                </g>
            </svg>